<svg width="90" height="90" viewBox="0 0 90 90" fill="none" xmlns="http://www.w3.org/2000/svg">
<g clip-path="url(#clip0_6_2)">
<mask id="mask0_6_2" style="mask-type:luminance" maskUnits="userSpaceOnUse" x="0" y="0" width="90" height="90">
<path d="M0 0H90V90H0V0Z" fill="white"/>
</mask>
<g mask="url(#mask0_6_2)">
<path d="M0 0H90V90H0V0Z" fill="#F3F3F3"/>
<path d="M46.9964 84.9239L31.3064 82.2443L30.5221 75.3793L35.556 70.9337L33.3332 63.6116C31.2412 63.7642 26.4164 63.7555 23.8533 62.5003C20.6495 60.9312 21.5002 57.7932 21.8271 55.8973C22.0886 54.3806 21.7181 52.1275 21.5002 51.1906L22.3501 50.275L21.8271 46.5486L23.3305 44.7834C22.9383 44.5873 22.0232 43.8551 21.5002 42.4953C20.8464 40.7955 22.0884 39.2917 23.3305 38.3112C24.3242 37.5268 25.2264 35.8052 25.5533 35.0424L23.8533 29.3547L25.5533 23.0133C26.4468 21.4444 29.0575 17.4828 32.3524 14.1879C36.4711 10.0692 43.7932 8.56526 51.246 9.08826C58.6989 9.61127 66.1517 13.9257 69.6166 22.0323C72.3885 28.5176 69.6384 36.2407 67.9168 39.2917C68.2219 40.0545 68.296 42.3516 66.1517 45.4373C64.0074 48.5231 61.6843 50.5586 60.7909 51.1906L59.4834 56.9437L63.602 67.8608L68.8321 69.8874L62.9483 79.9557L46.9964 84.9239Z" fill="white"/>
<path opacity="0.3" d="M34.8275 69.355L33.564 63.8447L35.8977 63.6163L41.8212 61.703L47.5227 59.6163L53.8002 53.2947L52.2218 59.3981C52.1846 59.5418 52.116 59.6753 52.0208 59.7891L46.9882 65.8094C46.6875 66.1692 46.5227 66.6232 46.5227 67.0921V72.2212C46.5227 73.728 44.9194 74.6937 43.5875 73.9891L34.8275 69.355Z" fill="#0066FF"/>
<path d="M40.0535 16.1235C34.0748 14.569 36.7638 12.0563 38.2082 10.7275C45.5374 8.83092 51.8183 9.45568 54.3518 9.88238C57.5187 10.4157 65.4192 13.5493 69.3862 21.4165C72.5597 27.7102 69.5084 35.5508 67.586 38.6843C65.9059 37.6176 64.108 38.4843 63.4191 39.051C62.9346 38.4309 61.7582 38.0324 60.0943 38.3097C58.0145 38.6564 57.2112 39.5299 55.7379 42.7364C54.2647 45.9429 53.7326 51.5766 53.9926 53.2232C54.2526 54.8698 51.1328 58.5096 47.493 60.3294C44.5812 61.7854 40.2712 62.7849 38.4802 63.1026C35.447 63.4493 28.5834 63.9346 25.3943 63.1026C21.4078 62.0627 21.2344 58.2496 22.0146 56.603C22.6388 55.2857 21.7545 52.7032 21.2344 51.5766L22.621 50.2767L21.8326 46.7745L23.3575 44.6091L23.9181 46.3067C24.0255 46.632 24.4229 46.7593 24.7096 46.5718C25.4174 46.1087 26.6007 45.4346 27.1917 45.6619C29.243 46.4509 30.9788 48.8913 32.6938 51.1197C32.6938 51.1197 33.1742 53.0604 33.2554 54.3595L35.8685 52.8123C36.7385 52.2972 37.7294 52.0235 38.7172 51.8081C39.9667 51.5356 41.8527 50.9631 44.6642 49.8385C49.0077 48.1011 52.6477 41.8497 54.3518 39.051C57.645 34.1979 55.8992 30.0845 57.2858 27.5713C58.6724 25.0582 59.9723 18.9918 57.2858 16.5653C54.5993 14.1388 44.3867 17.2502 40.0535 16.1235Z" fill="#E5EFFF"/>
<path d="M24.5557 32.3789L24.0458 30.58C23.8431 29.865 23.9133 29.0994 24.1598 28.3984C24.7192 26.807 25.3722 24.3716 25.6032 23.4476C25.9712 21.9756 31.8591 13.2818 37.6091 11.0739C43.359 8.86587 53.433 7.85328 60.1949 11.8093C66.9569 15.7652 69.1189 18.8475 70.1308 23.4476C71.1428 28.0477 70.3148 35.7297 67.9689 38.7656M62.3109 39.9156C63.3382 39.3023 65.6781 38.2136 66.8189 38.7656C68.2449 39.4556 68.5209 41.1116 67.9689 42.4456C67.2547 44.1716 64.6109 48.4256 62.6789 49.8516C60.7469 51.2776 59.1829 52.1515 56.1469 50.6796" stroke="#0066FF" stroke-width="1.5" stroke-linecap="round" stroke-linejoin="round"/>
<path d="M38.8972 62.8344C35.2786 63.0336 28.0413 64.296 25.0512 63.2385C22.0611 62.181 20.9571 58.961 21.6931 56.799C22.4291 54.637 21.3709 51.6472 21.6931 51.1872C21.9508 50.8192 22.2913 50.4512 22.4293 50.3132L21.86 47.6454C21.7528 47.1432 21.8429 46.6191 22.1116 46.1815L22.4293 45.6641" stroke="#0066FF" stroke-width="1.5" stroke-linecap="round" stroke-linejoin="round"/>
<path d="M26.5753 33.3848C25.9004 34.3658 24.1602 37.2622 22.6516 38.6609C20.7658 40.4094 20.6697 41.2526 21.0921 42.1697C21.685 43.4571 24.1229 44.5395 25.1349 44.9995" stroke="#0066FF" stroke-width="1.5" stroke-linecap="round" stroke-linejoin="round"/>
<path d="M61.6443 43.7363L59.853 47.4891" stroke="#0066FF" stroke-width="1.5" stroke-linecap="round" stroke-linejoin="round"/>
<path d="M59.2554 45.2715L62.4965 45.954" stroke="#0066FF" stroke-width="1.5" stroke-linecap="round" stroke-linejoin="round"/>
<path d="M3.1377 97.5693C3.1377 85.8 9.63434 78.187 12.0222 75.8839C13.3293 74.6232 24.5362 73.2414 29.4659 72.167C31.7409 71.6712 34.3556 70.2301 35.1366 70.2302L35.982 71.3968C31.3087 74.5111 26.0953 84.4116 43.9349 82.7898C57.2344 81.5808 73.1445 71.9132 63.9794 67.7656C64.9339 67.8849 69.9526 68.7855 69.9526 68.7855C69.9526 68.7855 77.203 71.4239 85.7034 73.4331C87.7263 73.9112 89.4731 75.2047 90.4519 77.0385L95.59 86.6652L93.0434 103.412L76.0162 117.142L5.44037 117.611C4.67281 114.854 3.1377 106.985 3.1377 97.5693Z" fill="#0066FF" stroke="#0066FF" stroke-width="1.5" stroke-linecap="round" stroke-linejoin="round"/>
<path d="M33.3975 63.8594L35.2481 69.7404L37.755 73.2069" stroke="#0066FF" stroke-width="1.5" stroke-linecap="round" stroke-linejoin="round"/>
<path d="M60.9808 50.9863L60.4456 52.057C59.3053 54.338 59.1863 56.9957 60.118 59.3696L64.101 69.5175" stroke="#0066FF" stroke-width="1.5" stroke-linecap="round" stroke-linejoin="round"/>
<path d="M36.8598 41.3333C37.1104 42.5872 38.7502 43.3165 40.5224 42.9623C42.2945 42.6081 43.528 41.3045 43.2773 40.0506C42.9485 38.4051 41.8271 37.3833 40.0549 37.7375C38.2828 38.0917 36.6092 40.0794 36.8598 41.3333Z" fill="#FED1D0"/>
<path d="M25.9333 31.0169L24.6252 30.8409C24.1952 30.783 23.8449 30.4669 23.7434 30.045C23.6115 29.4967 23.9357 28.9419 24.4782 28.7878L25.7478 28.4272C26.8225 28.122 27.7698 29.201 27.3281 30.2271C27.0929 30.7734 26.5227 31.0963 25.9333 31.0169Z" fill="#0066FF"/>
<path d="M32.6729 32.2436L39.932 34.0225C40.2828 34.1084 40.6527 33.9985 40.8997 33.7349C41.3836 33.2184 41.1924 32.3763 40.5328 32.1195L33.5683 29.4076C32.6886 29.0651 31.7162 29.6164 31.5584 30.5471C31.4277 31.3173 31.9141 32.0577 32.6729 32.2436Z" fill="#0066FF"/>
<path d="M35.676 35.3627C35.676 36.3818 35.0986 37.2079 34.3863 37.2079C33.6741 37.2079 33.0967 36.3818 33.0967 35.3627C33.0967 34.3437 33.6741 33.5176 34.3863 33.5176C35.0986 33.5176 35.676 34.3437 35.676 35.3627Z" fill="#0066FF"/>
<path opacity="0.3" d="M23.4953 49.021L22.1069 47.5664L22.2199 52.1206C22.2259 52.3617 22.4031 52.5641 22.6413 52.602L25.8071 53.1047C25.8414 53.1101 25.8761 53.112 25.9107 53.1103L28.2362 52.993C28.9099 52.959 29.5103 52.5573 29.7989 51.9476C29.8899 51.7553 29.838 51.5229 29.6646 51.3997C29.3504 51.1766 29.2153 51.1421 28.7051 50.8238C27.0798 49.8096 25.8457 49.3885 24.9568 49.0279C24.8592 48.9883 24.752 48.9793 24.6495 49.0034L23.9712 49.1625C23.7987 49.203 23.6176 49.1491 23.4953 49.021Z" fill="#0066FF"/>
</g>
</g>
<defs>
<clipPath id="clip0_6_2">
<rect width="90" height="90" rx="45" fill="white"/>
</clipPath>
</defs>
</svg>
