<svg width="35" height="35" viewBox="0 0 35 35" fill="none" xmlns="http://www.w3.org/2000/svg">
<path d="M35 0H0V35H35V0Z" fill="#12100E"/>
<path d="M8.35238 11.7054C8.38159 11.4168 8.27152 11.1315 8.056 10.9372L5.86059 8.29252V7.89746H12.6773L17.9463 19.453L22.5786 7.89746H29.077V8.29252L27.2 10.0922C27.0381 10.2156 26.9579 10.4183 26.9914 10.619V23.8426C26.9579 24.0433 27.0381 24.246 27.2 24.3693L29.0331 26.1691V26.5641H19.8124V26.1691L21.7114 24.3254C21.898 24.1389 21.898 24.084 21.898 23.7987V13.1101L16.6181 26.5202H15.9046L9.75744 13.1101V22.0977C9.70619 22.4756 9.83168 22.856 10.0977 23.1293L12.5676 26.1252V26.5202H5.56421V26.1252L8.03404 23.1293C8.29815 22.8556 8.41633 22.4726 8.35238 22.0977V11.7054Z" fill="white"/>
</svg>
